<svg width="914" height="648" viewBox="0 0 914 648" fill="none" xmlns="http://www.w3.org/2000/svg">
<path d="M150 349.5C75.5 325.75 164.5 274.5 191.5 312C207.063 333.615 215.889 323.255 209.526 297.392C208.135 291.737 206.727 286.497 205.435 282.524C203.325 294.309 199.741 299.627 200 284.5C200.23 271.084 202.541 273.623 205.435 282.524C208.686 264.364 208.437 230.85 185.236 233.122C178.253 233.806 171.323 234.952 165.256 236.511C165.134 253.209 162.304 263.812 156.5 260.667C136.379 249.763 146.844 241.24 165.256 236.511C165.492 204.492 155.776 150.061 138 127.167C122.026 106.594 141.5 62.3335 156.5 83.6668C171.5 105 246 72.6667 258 72.6667C270 72.6667 346 90.0001 383.5 90.0001L482.25 82.5001C516.875 79.8703 534.855 138.948 567.572 127.312C621.058 108.288 731.306 49.7844 709 118.5C675.878 220.533 609.309 318.421 693.242 242.935C704.194 233.086 722 240.557 722 255.285C722 260.746 719.356 265.835 714.982 269.104C693.478 285.175 635.059 332.481 722 312C813.713 290.394 761.945 354.529 748.433 369.983C746.489 372.207 744.45 374.298 742.729 376.699C735.817 386.341 721.598 414.196 769 434.5C812.894 453.302 744.692 471.863 722.952 478.807C715.518 481.182 725.217 484.58 730.854 489.977C746.954 505.392 739.012 532.367 716.849 534.742C709.649 535.513 702.935 536 697.5 536C673 536 503 481.5 511.5 536C519.999 590.5 251.5 583.596 334.5 536C400.229 498.308 272.174 486.135 216.036 482.701C202.842 481.894 195.197 456.481 191.042 443.932C184.545 424.311 179.969 406.826 182.809 386.353C184.763 372.269 177.625 358.307 150 349.5Z" fill="#280F8D" fill-opacity="0.65"/>
<path d="M662.748 321.359L250.191 320.098C209.712 319.974 179.109 356.705 186.539 396.498L188.5 407C179.912 444.731 208.521 480.696 247.218 480.814L672.163 482.114C711.667 482.234 740.948 445.478 732 407C741.286 362.956 707.761 321.497 662.748 321.359Z" fill="#CCAB82"/>
<rect x="280" y="133" width="341" height="225" rx="10" fill="#C4C4C4" fill-opacity="0.92"/>
<rect x="427" y="365" width="45" height="14" fill="#C4C4C4" fill-opacity="0.94"/>
<rect x="363" y="385" width="183" height="19" fill="#C4C4C4" fill-opacity="0.85"/>
<rect x="326" y="144" width="252" height="203" fill="#310909"/>
<ellipse cx="454.5" cy="383" rx="91.5" ry="10" fill="#C4C4C4" fill-opacity="0.81"/>
<path d="M410.5 228H390.5H387.405C384.862 228 383.472 225.033 385.1 223.079C385.67 222.395 386.515 222 387.405 222H434C435.657 222 437 223.343 437 225C437 226.657 435.657 228 434 228H410.5Z" fill="#280F8D"/>
<path d="M382.5 280H362.5H359.405C356.862 280 355.472 277.033 357.1 275.079C357.67 274.395 358.515 274 359.405 274H406C407.657 274 409 275.343 409 277C409 278.657 407.657 280 406 280H382.5Z" fill="#280F8D"/>
<path d="M543.5 309H523.5H520.405C517.862 309 516.472 306.033 518.1 304.079C518.67 303.395 519.515 303 520.405 303H567C568.657 303 570 304.343 570 306C570 307.657 568.657 309 567 309H543.5Z" fill="#280F8D"/>
<path d="M479.5 216H459.5H456.405C453.862 216 452.472 213.033 454.1 211.079C454.67 210.395 455.515 210 456.405 210H503C504.657 210 506 211.343 506 213C506 214.657 504.657 216 503 216H479.5Z" fill="#280F8D" stroke="black"/>
<path d="M360.536 213H353.393C351.7 213 350.485 211.37 350.968 209.748L351.148 209.144C351.526 207.872 352.696 207 354.023 207H367C368.657 207 370 208.343 370 210C370 211.657 368.657 213 367 213H360.536Z" fill="#FE6C86" fill-opacity="0.65"/>
<path d="M535.536 216H528.393C526.7 216 525.485 214.37 525.968 212.748L526.148 212.144C526.526 210.872 527.696 210 529.023 210H542C543.657 210 545 211.343 545 213C545 214.657 543.657 216 542 216H535.536Z" fill="#280F8D" fill-opacity="0.65" stroke="black"/>
<path d="M535.536 216H528.393C526.7 216 525.485 214.37 525.968 212.748L526.148 212.144C526.526 210.872 527.696 210 529.023 210H542C543.657 210 545 211.343 545 213C545 214.657 543.657 216 542 216H535.536Z" fill="#FE6C86" fill-opacity="0.65"/>
<path d="M479.5 216H459.5H456.405C453.862 216 452.472 213.033 454.1 211.079C454.67 210.395 455.515 210 456.405 210H503C504.657 210 506 211.343 506 213C506 214.657 504.657 216 503 216H479.5Z" fill="#280F8D" fill-opacity="0.65"/>
<path d="M448.741 228H445.527C444.719 228 444.095 227.288 444.203 226.487L444.455 224.602C444.655 223.112 445.926 222 447.429 222H450C451.657 222 453 223.343 453 225C453 226.657 451.657 228 450 228H448.741Z" fill="#D73636" fill-opacity="0.65"/>
<path d="M386.741 194H383.527C382.719 194 382.095 193.288 382.203 192.487L382.455 190.602C382.655 189.112 383.926 188 385.429 188H388C389.657 188 391 189.343 391 191C391 192.657 389.657 194 388 194H386.741Z" fill="#D73636" fill-opacity="0.65"/>
<path d="M545.741 258H542.527C541.719 258 541.095 257.288 541.203 256.487L541.455 254.602C541.655 253.112 542.926 252 544.429 252H547C548.657 252 550 253.343 550 255C550 256.657 548.657 258 547 258H545.741Z" fill="#D73636" fill-opacity="0.65"/>
<path d="M496.741 309H493.527C492.719 309 492.095 308.288 492.203 307.487L492.455 305.602C492.655 304.112 493.926 303 495.429 303H498C499.657 303 501 304.343 501 306C501 307.657 499.657 309 498 309H496.741Z" fill="#D73636" fill-opacity="0.65"/>
<path d="M353.741 194H350.527C349.719 194 349.095 193.288 349.203 192.487L349.455 190.602C349.655 189.112 350.926 188 352.429 188H355C356.657 188 358 189.343 358 191C358 192.657 356.657 194 355 194H353.741Z" fill="#D73636" fill-opacity="0.65"/>
<path d="M436.777 258H366.42H351.087C347.696 258 346.909 253.255 350.118 252.161C350.43 252.054 350.757 252 351.087 252H527C528.657 252 530 253.343 530 255C530 256.657 528.657 258 527 258H436.777Z" fill="#40F700" fill-opacity="0.25"/>
<path d="M374.5 243H354.5H351.405C348.862 243 347.472 240.033 349.1 238.079C349.67 237.395 350.515 237 351.405 237H398C399.657 237 401 238.343 401 240C401 241.657 399.657 243 398 243H374.5Z" fill="#FE6C86" fill-opacity="0.65"/>
<path d="M483.955 243H437.884H428.252C425.114 243 424.083 238.789 426.866 237.339C427.294 237.116 427.77 237 428.252 237H542C543.657 237 545 238.343 545 240C545 241.657 543.657 243 542 243H483.955Z" fill="#280F8D" fill-opacity="0.65"/>
<path d="M516.955 228H470.884H461.252C458.114 228 457.083 223.789 459.866 222.339C460.294 222.116 460.77 222 461.252 222H575C576.657 222 578 223.343 578 225C578 226.657 576.657 228 575 228H516.955Z" fill="#280F8D" fill-opacity="0.65"/>
<path d="M474.955 280H428.884H419.252C416.114 280 415.083 275.789 417.866 274.339C418.294 274.116 418.77 274 419.252 274H533C534.657 274 536 275.343 536 277C536 278.657 534.657 280 533 280H474.955Z" fill="#280F8D" fill-opacity="0.65"/>
<path d="M413.955 309H367.884H358.252C355.114 309 354.083 304.789 356.866 303.339C357.294 303.116 357.77 303 358.252 303H472C473.657 303 475 304.343 475 306C475 307.657 473.657 309 472 309H413.955Z" fill="#40F700" fill-opacity="0.25"/>
<path d="M517.83 194H486.759H480.792C477.93 194 476.693 190.375 478.958 188.626C479.483 188.22 480.128 188 480.792 188H556C557.657 188 559 189.343 559 191C559 192.657 557.657 194 556 194H517.83Z" fill="#280F8D" fill-opacity="0.65"/>
<path d="M445.5 194H425.5H422.405C419.862 194 418.472 191.033 420.1 189.079C420.67 188.395 421.515 188 422.405 188H469C470.657 188 472 189.343 472 191C472 192.657 470.657 194 469 194H445.5Z" fill="#FE6C86" fill-opacity="0.65"/>
<path d="M410.5 213H390.5H387.405C384.862 213 383.472 210.033 385.1 208.079C385.67 207.395 386.515 207 387.405 207H434C435.657 207 437 208.343 437 210C437 211.657 435.657 213 434 213H410.5Z" fill="#280F8D" fill-opacity="0.65"/>
<path d="M267.9 392.31L265.461 367.662C265.214 365.165 267.176 363 269.685 363H279.056H293.963H307.593C309.406 363 310.813 364.583 310.6 366.384L309.722 373.818L308.87 381.545L307.644 391.931C307.61 392.219 307.554 392.504 307.477 392.783C306.79 395.274 304.525 397 301.941 397H299.5H287.574H277.352H273.077C271.015 397 269.148 395.783 268.317 393.897C268.095 393.393 267.954 392.857 267.9 392.31Z" fill="#A25448"/>
<path d="M303.25 365H309.5C309.776 365 310 365.224 310 365.5C310 365.776 309.776 366 309.5 366H307.375H304.75H293.5H284.125H272.125H268.938H265.816C265.231 366 265.121 365.168 265.687 365.017C265.729 365.006 265.772 365 265.816 365H270.625H282.625H292H303.25Z" fill="#954D43"/>
<path d="M292.307 360H287.488C282.288 360 277.295 357.975 273.563 354.354L271.327 352.184L267.935 348.276L266.927 346.934C265.081 344.475 263.826 341.623 263.26 338.6L262.341 333.685C262.114 332.472 262 331.241 262 330.008V329.648C262 327.236 262.436 324.844 263.288 322.587L264.199 320.172C264.989 318.08 266.123 316.135 267.556 314.418L269.631 311.931C271.565 309.13 274.296 306.974 277.469 305.742L277.605 305.689C279.62 304.907 281.764 304.506 283.926 304.506H284.47L282.287 301.823C281.338 301.023 280.51 300.071 279.841 298.993L279.382 298.253L278.613 296.268C277.721 293.964 277.263 291.514 277.263 289.043V286.529V281.121C277.263 279.264 277.521 277.416 278.031 275.63L278.417 274.278C279.056 272.041 280.08 269.932 281.443 268.047L281.909 267.403C282.485 266.607 283.119 265.854 283.805 265.151L284.188 264.759C285.778 263.131 287.633 261.786 289.675 260.782L290.123 260.562C291.996 259.641 294.001 259.019 296.066 258.719L298.083 258.425C300.017 258.144 301.984 258.193 303.901 258.572C305.911 258.969 307.834 259.722 309.58 260.795L310.837 261.567C311.629 262.054 312.372 262.616 313.055 263.246C315.149 265.177 316.624 267.685 317.291 270.453L317.454 271.131L318.048 273.592L328.562 267.77L331.151 265.935C333.084 264.564 335.247 263.553 337.539 262.95C339.179 262.518 340.868 262.299 342.564 262.299H344.462C345.444 262.299 346.419 262.458 347.351 262.77C349.45 263.474 351.22 264.92 352.329 266.836L352.824 267.692C353.594 269.023 354 270.534 354 272.072C354 273.078 353.826 274.077 353.487 275.024L353.063 276.205C352.56 277.609 351.861 278.935 350.987 280.144L350.583 280.702C349.483 282.223 348.061 283.482 346.419 284.391C345.262 285.031 344.013 285.487 342.716 285.743L340.657 286.15C339.38 286.402 338.082 286.529 336.781 286.529H335.789C334.648 286.529 333.508 286.431 332.383 286.237L328.887 285.632C327.824 285.449 326.778 285.179 325.759 284.827L324.581 284.42C321.904 283.495 319.489 281.939 317.539 279.885L316.267 283.011L310.756 290.046L301.005 299.816L295.917 306.851C297.592 307.365 299.129 308.249 300.418 309.436L307.707 316.155C308.312 316.713 308.737 317.44 308.926 318.241L310.552 316.777C311.533 315.894 312.418 314.909 313.192 313.839C314.108 312.572 314.862 311.195 315.436 309.741L315.526 309.511C316.019 308.262 316.636 307.065 317.369 305.94L317.895 305.132C318.505 304.195 319.035 303.209 319.48 302.183L320.507 299.816C321.892 297.518 323.899 295.659 326.296 294.454L327.29 293.954L331.293 292.57C333.134 291.934 335.068 291.609 337.016 291.609H338.965C341.031 291.609 343.054 292.2 344.796 293.311C346.649 294.493 348.098 296.211 348.952 298.235L349.013 298.38C350.044 300.823 350.186 303.55 349.416 306.087L348.652 308.602C347.983 310.802 346.913 312.86 345.494 314.67L343.384 317.363C342.55 318.429 341.609 319.407 340.577 320.282L335.799 324.334C333.007 326.702 329.618 328.258 326.002 328.833L323.076 329.298C320.539 329.701 317.948 329.612 315.445 329.035L310.756 327.954V331.584C310.756 333.068 310.591 334.546 310.264 335.993L309.032 341.443C308.768 342.609 308.401 343.749 307.934 344.849L304.82 352.184C302.486 356.966 297.629 360 292.307 360Z" fill="#038353"/>
<path d="M322.641 314.512L323.042 314.848C323.173 314.958 323.181 315.145 323.059 315.265L322.838 315.482L321.894 316.413L321.106 317.189L320.099 318.182L319.831 318.446C319.537 318.735 319.024 318.694 318.796 318.362L318.633 318.125C318.445 317.852 318.483 317.497 318.724 317.259L319.732 316.266L320.519 315.49L321.464 314.559C321.777 314.25 322.304 314.229 322.641 314.512Z" fill="#065235"/>
<path d="M322.641 314.512L323.042 314.848C323.173 314.958 323.181 315.145 323.059 315.265L322.838 315.482L321.894 316.413L321.106 317.189L320.099 318.182L319.831 318.446C319.537 318.735 319.024 318.694 318.796 318.362L318.633 318.125C318.445 317.852 318.483 317.497 318.724 317.259L319.732 316.266L320.519 315.49L321.464 314.559C321.777 314.25 322.304 314.229 322.641 314.512Z" fill="#065235"/>
<path d="M322.641 314.512L323.042 314.848C323.173 314.958 323.181 315.145 323.059 315.265L322.838 315.482L321.894 316.413L321.106 317.189L320.099 318.182L319.831 318.446C319.537 318.735 319.024 318.694 318.796 318.362L318.633 318.125C318.445 317.852 318.483 317.497 318.724 317.259L319.732 316.266L320.519 315.49L321.464 314.559C321.777 314.25 322.304 314.229 322.641 314.512Z" fill="#065235"/>
<path d="M272.641 328.512L273.042 328.848C273.173 328.958 273.181 329.145 273.059 329.265L272.838 329.482L271.894 330.413L271.106 331.189L270.099 332.182L269.831 332.446C269.537 332.735 269.024 332.694 268.796 332.362L268.633 332.125C268.445 331.852 268.483 331.497 268.724 331.259L269.732 330.266L270.519 329.49L271.464 328.559C271.777 328.25 272.304 328.229 272.641 328.512Z" fill="#065235"/>
<path d="M272.641 328.512L273.042 328.848C273.173 328.958 273.181 329.145 273.059 329.265L272.838 329.482L271.894 330.413L271.106 331.189L270.099 332.182L269.831 332.446C269.537 332.735 269.024 332.694 268.796 332.362L268.633 332.125C268.445 331.852 268.483 331.497 268.724 331.259L269.732 330.266L270.519 329.49L271.464 328.559C271.777 328.25 272.304 328.229 272.641 328.512Z" fill="#065235"/>
<path d="M272.641 328.512L273.042 328.848C273.173 328.958 273.181 329.145 273.059 329.265L272.838 329.482L271.894 330.413L271.106 331.189L270.099 332.182L269.831 332.446C269.537 332.735 269.024 332.694 268.796 332.362L268.633 332.125C268.445 331.852 268.483 331.497 268.724 331.259L269.732 330.266L270.519 329.49L271.464 328.559C271.777 328.25 272.304 328.229 272.641 328.512Z" fill="#065235"/>
<path d="M303.641 342.512L304.042 342.848C304.173 342.958 304.181 343.145 304.059 343.265L303.838 343.482L302.894 344.413L302.106 345.189L301.099 346.182L300.831 346.446C300.537 346.735 300.024 346.694 299.796 346.362L299.633 346.125C299.445 345.852 299.483 345.497 299.724 345.259L300.732 344.266L301.519 343.49L302.464 342.559C302.777 342.25 303.304 342.229 303.641 342.512Z" fill="#065235"/>
<path d="M303.641 342.512L304.042 342.848C304.173 342.958 304.181 343.145 304.059 343.265L303.838 343.482L302.894 344.413L302.106 345.189L301.099 346.182L300.831 346.446C300.537 346.735 300.024 346.694 299.796 346.362L299.633 346.125C299.445 345.852 299.483 345.497 299.724 345.259L300.732 344.266L301.519 343.49L302.464 342.559C302.777 342.25 303.304 342.229 303.641 342.512Z" fill="#065235"/>
<path d="M303.641 342.512L304.042 342.848C304.173 342.958 304.181 343.145 304.059 343.265L303.838 343.482L302.894 344.413L302.106 345.189L301.099 346.182L300.831 346.446C300.537 346.735 300.024 346.694 299.796 346.362L299.633 346.125C299.445 345.852 299.483 345.497 299.724 345.259L300.732 344.266L301.519 343.49L302.464 342.559C302.777 342.25 303.304 342.229 303.641 342.512Z" fill="#065235"/>
<path d="M300.641 314.512L301.042 314.848C301.173 314.958 301.181 315.145 301.059 315.265L300.838 315.482L299.894 316.413L299.106 317.189L298.099 318.182L297.831 318.446C297.537 318.735 297.024 318.694 296.796 318.362L296.633 318.125C296.445 317.852 296.483 317.497 296.724 317.259L297.732 316.266L298.519 315.49L299.464 314.559C299.777 314.25 300.304 314.229 300.641 314.512Z" fill="#065235"/>
<path d="M300.641 314.512L301.042 314.848C301.173 314.958 301.181 315.145 301.059 315.265L300.838 315.482L299.894 316.413L299.106 317.189L298.099 318.182L297.831 318.446C297.537 318.735 297.024 318.694 296.796 318.362L296.633 318.125C296.445 317.852 296.483 317.497 296.724 317.259L297.732 316.266L298.519 315.49L299.464 314.559C299.777 314.25 300.304 314.229 300.641 314.512Z" fill="#065235"/>
<path d="M300.641 314.512L301.042 314.848C301.173 314.958 301.181 315.145 301.059 315.265L300.838 315.482L299.894 316.413L299.106 317.189L298.099 318.182L297.831 318.446C297.537 318.735 297.024 318.694 296.796 318.362L296.633 318.125C296.445 317.852 296.483 317.497 296.724 317.259L297.732 316.266L298.519 315.49L299.464 314.559C299.777 314.25 300.304 314.229 300.641 314.512Z" fill="#065235"/>
<path d="M290.641 333.512L291.042 333.848C291.173 333.958 291.181 334.145 291.059 334.265L290.838 334.482L289.894 335.413L289.106 336.189L288.099 337.182L287.831 337.446C287.537 337.735 287.024 337.694 286.796 337.362L286.633 337.125C286.445 336.852 286.483 336.497 286.724 336.259L287.732 335.266L288.519 334.49L289.464 333.559C289.777 333.25 290.304 333.229 290.641 333.512Z" fill="#065235"/>
<path d="M290.641 333.512L291.042 333.848C291.173 333.958 291.181 334.145 291.059 334.265L290.838 334.482L289.894 335.413L289.106 336.189L288.099 337.182L287.831 337.446C287.537 337.735 287.024 337.694 286.796 337.362L286.633 337.125C286.445 336.852 286.483 336.497 286.724 336.259L287.732 335.266L288.519 334.49L289.464 333.559C289.777 333.25 290.304 333.229 290.641 333.512Z" fill="#065235"/>
<path d="M290.641 333.512L291.042 333.848C291.173 333.958 291.181 334.145 291.059 334.265L290.838 334.482L289.894 335.413L289.106 336.189L288.099 337.182L287.831 337.446C287.537 337.735 287.024 337.694 286.796 337.362L286.633 337.125C286.445 336.852 286.483 336.497 286.724 336.259L287.732 335.266L288.519 334.49L289.464 333.559C289.777 333.25 290.304 333.229 290.641 333.512Z" fill="#065235"/>
<path d="M313 360V362.047C313 363.678 311.678 365 310.047 365H307.094H294.438H283.891H270.391H266.805H266.536C262.959 365 260.539 361.353 261.929 358.056C262.711 356.204 264.526 355 266.536 355H268.703H282.203H292.75H305.406H308C310.761 355 313 357.239 313 360Z" fill="#AB594D"/>
<path d="M261.745 315.222L265.373 316.806C265.667 316.934 265.983 317 266.303 317C267.049 317 267.75 316.642 268.187 316.038L269.027 314.877C269.659 314.002 270 312.95 270 311.871V310.448V303.896V296.573V292.645C270 290.91 269.682 289.19 269.062 287.57L268.577 286.306C267.87 284.458 266.62 282.867 264.992 281.741L264.774 281.591C263.275 280.555 261.497 280 259.675 280C258.485 280 257.308 280.237 256.21 280.696L254.906 281.243C253.823 281.696 252.815 282.31 251.915 283.064C249.82 284.82 248.406 287.254 247.92 289.944L247.593 291.751C247.202 293.917 247.24 296.138 247.707 298.289L247.77 298.578C248.364 301.316 249.58 303.88 251.324 306.072L253.273 308.521L255.015 310.418C256.899 312.471 259.192 314.107 261.745 315.222Z" fill="#038353"/>
<path d="M256.07 297.956L255.843 298.428C255.769 298.582 255.59 298.635 255.444 298.547L255.179 298.387L254.043 297.701L253.097 297.13L251.886 296.398L251.564 296.204C251.211 295.991 251.125 295.483 251.39 295.18L251.58 294.963C251.798 294.714 252.151 294.663 252.441 294.839L253.653 295.57L254.599 296.142L255.734 296.828C256.11 297.055 256.261 297.56 256.07 297.956Z" fill="#065235"/>
<path d="M256.07 297.956L255.843 298.428C255.769 298.582 255.59 298.635 255.444 298.547L255.179 298.387L254.043 297.701L253.097 297.13L251.886 296.398L251.564 296.204C251.211 295.991 251.125 295.483 251.39 295.18L251.58 294.963C251.798 294.714 252.151 294.663 252.441 294.839L253.653 295.57L254.599 296.142L255.734 296.828C256.11 297.055 256.261 297.56 256.07 297.956Z" fill="#065235"/>
<path d="M256.07 297.956L255.843 298.428C255.769 298.582 255.59 298.635 255.444 298.547L255.179 298.387L254.043 297.701L253.097 297.13L251.886 296.398L251.564 296.204C251.211 295.991 251.125 295.483 251.39 295.18L251.58 294.963C251.798 294.714 252.151 294.663 252.441 294.839L253.653 295.57L254.599 296.142L255.734 296.828C256.11 297.055 256.261 297.56 256.07 297.956Z" fill="#065235"/>
<path d="M267.55 292.603L267.428 293.112C267.388 293.279 267.225 293.369 267.063 293.314L266.77 293.213L265.515 292.785L264.469 292.428L263.13 291.971L262.774 291.849C262.384 291.716 262.191 291.238 262.386 290.886L262.526 290.634C262.686 290.344 263.02 290.219 263.341 290.329L264.68 290.786L265.726 291.143L266.981 291.572C267.397 291.714 267.652 292.175 267.55 292.603Z" fill="#065235"/>
<path d="M267.55 292.603L267.428 293.112C267.388 293.279 267.225 293.369 267.063 293.314L266.77 293.213L265.515 292.785L264.469 292.428L263.13 291.971L262.774 291.849C262.384 291.716 262.191 291.238 262.386 290.886L262.526 290.634C262.686 290.344 263.02 290.219 263.341 290.329L264.68 290.786L265.726 291.143L266.981 291.572C267.397 291.714 267.652 292.175 267.55 292.603Z" fill="#065235"/>
<path d="M267.55 292.603L267.428 293.112C267.388 293.279 267.225 293.369 267.063 293.314L266.77 293.213L265.515 292.785L264.469 292.428L263.13 291.971L262.774 291.849C262.384 291.716 262.191 291.238 262.386 290.886L262.526 290.634C262.686 290.344 263.02 290.219 263.341 290.329L264.68 290.786L265.726 291.143L266.981 291.572C267.397 291.714 267.652 292.175 267.55 292.603Z" fill="#065235"/>
<path d="M304.641 326.512L305.042 326.848C305.173 326.958 305.181 327.145 305.059 327.265L304.838 327.482L303.894 328.413L303.106 329.189L302.099 330.182L301.831 330.446C301.537 330.735 301.024 330.694 300.796 330.362L300.633 330.125C300.445 329.852 300.483 329.497 300.724 329.259L301.732 328.266L302.519 327.49L303.464 326.559C303.777 326.25 304.304 326.229 304.641 326.512Z" fill="#065235"/>
<path d="M304.641 326.512L305.042 326.848C305.173 326.958 305.181 327.145 305.059 327.265L304.838 327.482L303.894 328.413L303.106 329.189L302.099 330.182L301.831 330.446C301.537 330.735 301.024 330.694 300.796 330.362L300.633 330.125C300.445 329.852 300.483 329.497 300.724 329.259L301.732 328.266L302.519 327.49L303.464 326.559C303.777 326.25 304.304 326.229 304.641 326.512Z" fill="#065235"/>
<path d="M304.641 326.512L305.042 326.848C305.173 326.958 305.181 327.145 305.059 327.265L304.838 327.482L303.894 328.413L303.106 329.189L302.099 330.182L301.831 330.446C301.537 330.735 301.024 330.694 300.796 330.362L300.633 330.125C300.445 329.852 300.483 329.497 300.724 329.259L301.732 328.266L302.519 327.49L303.464 326.559C303.777 326.25 304.304 326.229 304.641 326.512Z" fill="#065235"/>
<path d="M263.286 284.053L263.141 283.931C263.01 283.822 262.806 283.83 262.684 283.95L262.463 284.167L261.519 285.098L260.731 285.874L259.723 286.867L259.456 287.131L259.419 287.168C259.162 287.421 259.274 287.828 259.631 287.937C259.826 287.997 260.041 287.946 260.182 287.808L260.36 287.632L261.368 286.638L262.156 285.863L263.1 284.931L263.313 284.722C263.508 284.529 263.496 284.229 263.286 284.053Z" fill="#065235"/>
<path d="M263.286 284.053L263.141 283.931C263.01 283.822 262.806 283.83 262.684 283.95L262.463 284.167L261.519 285.098L260.731 285.874L259.723 286.867L259.456 287.131L259.419 287.168C259.162 287.421 259.274 287.828 259.631 287.937C259.826 287.997 260.041 287.946 260.182 287.808L260.36 287.632L261.368 286.638L262.156 285.863L263.1 284.931L263.313 284.722C263.508 284.529 263.496 284.229 263.286 284.053Z" fill="#065235"/>
<path d="M263.286 284.053L263.141 283.931C263.01 283.822 262.806 283.83 262.684 283.95L262.463 284.167L261.519 285.098L260.731 285.874L259.723 286.867L259.456 287.131L259.419 287.168C259.162 287.421 259.274 287.828 259.631 287.937C259.826 287.997 260.041 287.946 260.182 287.808L260.36 287.632L261.368 286.638L262.156 285.863L263.1 284.931L263.313 284.722C263.508 284.529 263.496 284.229 263.286 284.053Z" fill="#065235"/>
<path d="M329.768 274.728L330.169 275.065C330.3 275.175 330.308 275.361 330.186 275.481L329.965 275.699L329.021 276.63L328.233 277.406L327.225 278.399L326.958 278.663C326.664 278.952 326.151 278.91 325.923 278.579L325.76 278.341C325.572 278.068 325.61 277.714 325.851 277.476L326.859 276.482L327.646 275.707L328.591 274.775C328.904 274.467 329.431 274.446 329.768 274.728Z" fill="#065235"/>
<path d="M329.768 274.728L330.169 275.065C330.3 275.175 330.308 275.361 330.186 275.481L329.965 275.699L329.021 276.63L328.233 277.406L327.225 278.399L326.958 278.663C326.664 278.952 326.151 278.91 325.923 278.579L325.76 278.341C325.572 278.068 325.61 277.714 325.851 277.476L326.859 276.482L327.646 275.707L328.591 274.775C328.904 274.467 329.431 274.446 329.768 274.728Z" fill="#065235"/>
<path d="M329.768 274.728L330.169 275.065C330.3 275.175 330.308 275.361 330.186 275.481L329.965 275.699L329.021 276.63L328.233 277.406L327.225 278.399L326.958 278.663C326.664 278.952 326.151 278.91 325.923 278.579L325.76 278.341C325.572 278.068 325.61 277.714 325.851 277.476L326.859 276.482L327.646 275.707L328.591 274.775C328.904 274.467 329.431 274.446 329.768 274.728Z" fill="#065235"/>
<path d="M341.641 269.512L342.042 269.848C342.173 269.958 342.181 270.145 342.059 270.265L341.838 270.482L340.894 271.413L340.106 272.189L339.099 273.182L338.831 273.446C338.537 273.735 338.024 273.694 337.796 273.362L337.633 273.125C337.445 272.852 337.483 272.497 337.724 272.259L338.732 271.266L339.519 270.49L340.464 269.559C340.777 269.25 341.304 269.229 341.641 269.512Z" fill="#065235"/>
<path d="M341.641 269.512L342.042 269.848C342.173 269.958 342.181 270.145 342.059 270.265L341.838 270.482L340.894 271.413L340.106 272.189L339.099 273.182L338.831 273.446C338.537 273.735 338.024 273.694 337.796 273.362L337.633 273.125C337.445 272.852 337.483 272.497 337.724 272.259L338.732 271.266L339.519 270.49L340.464 269.559C340.777 269.25 341.304 269.229 341.641 269.512Z" fill="#065235"/>
<path d="M341.641 269.512L342.042 269.848C342.173 269.958 342.181 270.145 342.059 270.265L341.838 270.482L340.894 271.413L340.106 272.189L339.099 273.182L338.831 273.446C338.537 273.735 338.024 273.694 337.796 273.362L337.633 273.125C337.445 272.852 337.483 272.497 337.724 272.259L338.732 271.266L339.519 270.49L340.464 269.559C340.777 269.25 341.304 269.229 341.641 269.512Z" fill="#065235"/>
<path d="M293.252 268.551L293.653 268.887C293.784 268.997 293.792 269.184 293.67 269.304L293.45 269.521L292.505 270.452L291.717 271.228L290.71 272.221L290.442 272.485C290.148 272.774 289.635 272.733 289.407 272.401L289.244 272.164C289.056 271.891 289.094 271.536 289.335 271.298L290.343 270.305L291.131 269.529L292.075 268.598C292.388 268.289 292.915 268.268 293.252 268.551Z" fill="#065235"/>
<path d="M293.252 268.551L293.653 268.887C293.784 268.997 293.792 269.184 293.67 269.304L293.45 269.521L292.505 270.452L291.717 271.228L290.71 272.221L290.442 272.485C290.148 272.774 289.635 272.733 289.407 272.401L289.244 272.164C289.056 271.891 289.094 271.536 289.335 271.298L290.343 270.305L291.131 269.529L292.075 268.598C292.388 268.289 292.915 268.268 293.252 268.551Z" fill="#065235"/>
<path d="M293.252 268.551L293.653 268.887C293.784 268.997 293.792 269.184 293.67 269.304L293.45 269.521L292.505 270.452L291.717 271.228L290.71 272.221L290.442 272.485C290.148 272.774 289.635 272.733 289.407 272.401L289.244 272.164C289.056 271.891 289.094 271.536 289.335 271.298L290.343 270.305L291.131 269.529L292.075 268.598C292.388 268.289 292.915 268.268 293.252 268.551Z" fill="#065235"/>
<path d="M295.8 301.756L296.201 302.093C296.332 302.203 296.339 302.389 296.218 302.509L295.997 302.726L295.052 303.658L294.265 304.433L293.257 305.427L292.99 305.69C292.696 305.98 292.183 305.938 291.955 305.607L291.791 305.369C291.604 305.096 291.641 304.742 291.883 304.503L292.891 303.51L293.678 302.734L294.623 301.803C294.936 301.495 295.463 301.474 295.8 301.756Z" fill="#065235"/>
<path d="M295.8 301.756L296.201 302.093C296.332 302.203 296.339 302.389 296.218 302.509L295.997 302.726L295.052 303.658L294.265 304.433L293.257 305.427L292.99 305.69C292.696 305.98 292.183 305.938 291.955 305.607L291.791 305.369C291.604 305.096 291.641 304.742 291.883 304.503L292.891 303.51L293.678 302.734L294.623 301.803C294.936 301.495 295.463 301.474 295.8 301.756Z" fill="#065235"/>
<path d="M295.8 301.756L296.201 302.093C296.332 302.203 296.339 302.389 296.218 302.509L295.997 302.726L295.052 303.658L294.265 304.433L293.257 305.427L292.99 305.69C292.696 305.98 292.183 305.938 291.955 305.607L291.791 305.369C291.604 305.096 291.641 304.742 291.883 304.503L292.891 303.51L293.678 302.734L294.623 301.803C294.936 301.495 295.463 301.474 295.8 301.756Z" fill="#065235"/>
<path d="M332.315 298.667L332.717 299.004C332.848 299.114 332.855 299.3 332.733 299.42L332.513 299.637L331.568 300.568L330.781 301.344L329.773 302.338L329.505 302.601C329.212 302.891 328.698 302.849 328.471 302.518L328.307 302.28C328.12 302.007 328.157 301.652 328.399 301.414L329.407 300.421L330.194 299.645L331.139 298.714C331.452 298.406 331.979 298.385 332.315 298.667Z" fill="#065235"/>
<path d="M332.315 298.667L332.717 299.004C332.848 299.114 332.855 299.3 332.733 299.42L332.513 299.637L331.568 300.568L330.781 301.344L329.773 302.338L329.505 302.601C329.212 302.891 328.698 302.849 328.471 302.518L328.307 302.28C328.12 302.007 328.157 301.652 328.399 301.414L329.407 300.421L330.194 299.645L331.139 298.714C331.452 298.406 331.979 298.385 332.315 298.667Z" fill="#065235"/>
<path d="M332.315 298.667L332.717 299.004C332.848 299.114 332.855 299.3 332.733 299.42L332.513 299.637L331.568 300.568L330.781 301.344L329.773 302.338L329.505 302.601C329.212 302.891 328.698 302.849 328.471 302.518L328.307 302.28C328.12 302.007 328.157 301.652 328.399 301.414L329.407 300.421L330.194 299.645L331.139 298.714C331.452 298.406 331.979 298.385 332.315 298.667Z" fill="#065235"/>
<path d="M270.145 312.661L269.924 313.073C269.841 313.229 269.642 313.297 269.481 313.225L269.188 313.096L267.936 312.541L266.892 312.078L265.556 311.486L265.201 311.329C264.815 311.158 264.728 310.677 265.027 310.367L265.172 310.218C265.42 309.961 265.813 309.882 266.133 310.024L267.469 310.616L268.513 311.078L269.765 311.633L269.797 311.647C270.195 311.824 270.35 312.277 270.145 312.661Z" fill="#065235"/>
<path d="M270.145 312.661L269.924 313.073C269.841 313.229 269.642 313.297 269.481 313.225L269.188 313.096L267.936 312.541L266.892 312.078L265.556 311.486L265.201 311.329C264.815 311.158 264.728 310.677 265.027 310.367L265.172 310.218C265.42 309.961 265.813 309.882 266.133 310.024L267.469 310.616L268.513 311.078L269.765 311.633L269.797 311.647C270.195 311.824 270.35 312.277 270.145 312.661Z" fill="#065235"/>
<path d="M270.145 312.661L269.924 313.073C269.841 313.229 269.642 313.297 269.481 313.225L269.188 313.096L267.936 312.541L266.892 312.078L265.556 311.486L265.201 311.329C264.815 311.158 264.728 310.677 265.027 310.367L265.172 310.218C265.42 309.961 265.813 309.882 266.133 310.024L267.469 310.616L268.513 311.078L269.765 311.633L269.797 311.647C270.195 311.824 270.35 312.277 270.145 312.661Z" fill="#065235"/>
<path d="M263.016 305.294L262.442 305.497C262.286 305.552 262.107 305.474 262.041 305.322L261.923 305.046L261.417 303.866L260.995 302.882L260.456 301.623L260.312 301.289C260.154 300.92 260.395 300.523 260.8 300.484L261.189 300.447C261.52 300.416 261.841 300.604 261.97 300.905L262.51 302.164L262.932 303.148L263.438 304.328C263.606 304.719 263.417 305.152 263.016 305.294Z" fill="#065235"/>
<path d="M263.016 305.294L262.442 305.497C262.286 305.552 262.107 305.474 262.041 305.322L261.923 305.046L261.417 303.866L260.995 302.882L260.456 301.623L260.312 301.289C260.154 300.92 260.395 300.523 260.8 300.484L261.189 300.447C261.52 300.416 261.841 300.604 261.97 300.905L262.51 302.164L262.932 303.148L263.438 304.328C263.606 304.719 263.417 305.152 263.016 305.294Z" fill="#065235"/>
<path d="M263.016 305.294L262.442 305.497C262.286 305.552 262.107 305.474 262.041 305.322L261.923 305.046L261.417 303.866L260.995 302.882L260.456 301.623L260.312 301.289C260.154 300.92 260.395 300.523 260.8 300.484L261.189 300.447C261.52 300.416 261.841 300.604 261.97 300.905L262.51 302.164L262.932 303.148L263.438 304.328C263.606 304.719 263.417 305.152 263.016 305.294Z" fill="#065235"/>
<path d="M296.649 280.906L297.05 281.243C297.181 281.353 297.189 281.539 297.067 281.659L296.846 281.876L295.902 282.807L295.114 283.583L294.106 284.577L293.839 284.84C293.545 285.13 293.032 285.088 292.804 284.757L292.641 284.519C292.453 284.246 292.491 283.891 292.732 283.653L293.74 282.66L294.527 281.884L295.472 280.953C295.785 280.645 296.312 280.624 296.649 280.906Z" fill="#065235"/>
<path d="M296.649 280.906L297.05 281.243C297.181 281.353 297.189 281.539 297.067 281.659L296.846 281.876L295.902 282.807L295.114 283.583L294.106 284.577L293.839 284.84C293.545 285.13 293.032 285.088 292.804 284.757L292.641 284.519C292.453 284.246 292.491 283.891 292.732 283.653L293.74 282.66L294.527 281.884L295.472 280.953C295.785 280.645 296.312 280.624 296.649 280.906Z" fill="#065235"/>
<path d="M296.649 280.906L297.05 281.243C297.181 281.353 297.189 281.539 297.067 281.659L296.846 281.876L295.902 282.807L295.114 283.583L294.106 284.577L293.839 284.84C293.545 285.13 293.032 285.088 292.804 284.757L292.641 284.519C292.453 284.246 292.491 283.891 292.732 283.653L293.74 282.66L294.527 281.884L295.472 280.953C295.785 280.645 296.312 280.624 296.649 280.906Z" fill="#065235"/>
<path d="M288.641 289.512L289.042 289.848C289.173 289.958 289.181 290.145 289.059 290.265L288.838 290.482L287.894 291.413L287.106 292.189L286.099 293.182L285.831 293.446C285.537 293.735 285.024 293.694 284.796 293.362L284.633 293.125C284.445 292.852 284.483 292.497 284.724 292.259L285.732 291.266L286.519 290.49L287.464 289.559C287.777 289.25 288.304 289.229 288.641 289.512Z" fill="#065235"/>
<path d="M288.641 289.512L289.042 289.848C289.173 289.958 289.181 290.145 289.059 290.265L288.838 290.482L287.894 291.413L287.106 292.189L286.099 293.182L285.831 293.446C285.537 293.735 285.024 293.694 284.796 293.362L284.633 293.125C284.445 292.852 284.483 292.497 284.724 292.259L285.732 291.266L286.519 290.49L287.464 289.559C287.777 289.25 288.304 289.229 288.641 289.512Z" fill="#065235"/>
<path d="M288.641 289.512L289.042 289.848C289.173 289.958 289.181 290.145 289.059 290.265L288.838 290.482L287.894 291.413L287.106 292.189L286.099 293.182L285.831 293.446C285.537 293.735 285.024 293.694 284.796 293.362L284.633 293.125C284.445 292.852 284.483 292.497 284.724 292.259L285.732 291.266L286.519 290.49L287.464 289.559C287.777 289.25 288.304 289.229 288.641 289.512Z" fill="#065235"/>
<path d="M301.641 290.512L302.042 290.848C302.173 290.958 302.181 291.145 302.059 291.265L301.838 291.482L300.894 292.413L300.106 293.189L299.099 294.182L298.831 294.446C298.537 294.735 298.024 294.694 297.796 294.362L297.633 294.125C297.445 293.852 297.483 293.497 297.724 293.259L298.732 292.266L299.519 291.49L300.464 290.559C300.777 290.25 301.304 290.229 301.641 290.512Z" fill="#065235"/>
<path d="M301.641 290.512L302.042 290.848C302.173 290.958 302.181 291.145 302.059 291.265L301.838 291.482L300.894 292.413L300.106 293.189L299.099 294.182L298.831 294.446C298.537 294.735 298.024 294.694 297.796 294.362L297.633 294.125C297.445 293.852 297.483 293.497 297.724 293.259L298.732 292.266L299.519 291.49L300.464 290.559C300.777 290.25 301.304 290.229 301.641 290.512Z" fill="#065235"/>
<path d="M301.641 290.512L302.042 290.848C302.173 290.958 302.181 291.145 302.059 291.265L301.838 291.482L300.894 292.413L300.106 293.189L299.099 294.182L298.831 294.446C298.537 294.735 298.024 294.694 297.796 294.362L297.633 294.125C297.445 293.852 297.483 293.497 297.724 293.259L298.732 292.266L299.519 291.49L300.464 290.559C300.777 290.25 301.304 290.229 301.641 290.512Z" fill="#065235"/>
<path d="M307.641 268.512L308.042 268.848C308.173 268.958 308.181 269.145 308.059 269.265L307.838 269.482L306.894 270.413L306.106 271.189L305.099 272.182L304.831 272.446C304.537 272.735 304.024 272.694 303.796 272.362L303.633 272.125C303.445 271.852 303.483 271.497 303.724 271.259L304.732 270.266L305.519 269.49L306.464 268.559C306.777 268.25 307.304 268.229 307.641 268.512Z" fill="#065235"/>
<path d="M307.641 268.512L308.042 268.848C308.173 268.958 308.181 269.145 308.059 269.265L307.838 269.482L306.894 270.413L306.106 271.189L305.099 272.182L304.831 272.446C304.537 272.735 304.024 272.694 303.796 272.362L303.633 272.125C303.445 271.852 303.483 271.497 303.724 271.259L304.732 270.266L305.519 269.49L306.464 268.559C306.777 268.25 307.304 268.229 307.641 268.512Z" fill="#065235"/>
<path d="M307.641 268.512L308.042 268.848C308.173 268.958 308.181 269.145 308.059 269.265L307.838 269.482L306.894 270.413L306.106 271.189L305.099 272.182L304.831 272.446C304.537 272.735 304.024 272.694 303.796 272.362L303.633 272.125C303.445 271.852 303.483 271.497 303.724 271.259L304.732 270.266L305.519 269.49L306.464 268.559C306.777 268.25 307.304 268.229 307.641 268.512Z" fill="#065235"/>
<path d="M284.641 313.512L285.042 313.848C285.173 313.958 285.181 314.145 285.059 314.265L284.838 314.482L283.894 315.413L283.106 316.189L282.099 317.182L281.831 317.446C281.537 317.735 281.024 317.694 280.796 317.362L280.633 317.125C280.445 316.852 280.483 316.497 280.724 316.259L281.732 315.266L282.519 314.49L283.464 313.559C283.777 313.25 284.304 313.229 284.641 313.512Z" fill="#065235"/>
<path d="M284.641 313.512L285.042 313.848C285.173 313.958 285.181 314.145 285.059 314.265L284.838 314.482L283.894 315.413L283.106 316.189L282.099 317.182L281.831 317.446C281.537 317.735 281.024 317.694 280.796 317.362L280.633 317.125C280.445 316.852 280.483 316.497 280.724 316.259L281.732 315.266L282.519 314.49L283.464 313.559C283.777 313.25 284.304 313.229 284.641 313.512Z" fill="#065235"/>
<path d="M284.641 313.512L285.042 313.848C285.173 313.958 285.181 314.145 285.059 314.265L284.838 314.482L283.894 315.413L283.106 316.189L282.099 317.182L281.831 317.446C281.537 317.735 281.024 317.694 280.796 317.362L280.633 317.125C280.445 316.852 280.483 316.497 280.724 316.259L281.732 315.266L282.519 314.49L283.464 313.559C283.777 313.25 284.304 313.229 284.641 313.512Z" fill="#065235"/>
<path d="M284.641 345.512L285.042 345.848C285.173 345.958 285.181 346.145 285.059 346.265L284.838 346.482L283.894 347.413L283.106 348.189L282.099 349.182L281.831 349.446C281.537 349.735 281.024 349.694 280.796 349.362L280.633 349.125C280.445 348.852 280.483 348.497 280.724 348.259L281.732 347.266L282.519 346.49L283.464 345.559C283.777 345.25 284.304 345.229 284.641 345.512Z" fill="#065235"/>
<path d="M284.641 345.512L285.042 345.848C285.173 345.958 285.181 346.145 285.059 346.265L284.838 346.482L283.894 347.413L283.106 348.189L282.099 349.182L281.831 349.446C281.537 349.735 281.024 349.694 280.796 349.362L280.633 349.125C280.445 348.852 280.483 348.497 280.724 348.259L281.732 347.266L282.519 346.49L283.464 345.559C283.777 345.25 284.304 345.229 284.641 345.512Z" fill="#065235"/>
<path d="M284.641 345.512L285.042 345.848C285.173 345.958 285.181 346.145 285.059 346.265L284.838 346.482L283.894 347.413L283.106 348.189L282.099 349.182L281.831 349.446C281.537 349.735 281.024 349.694 280.796 349.362L280.633 349.125C280.445 348.852 280.483 348.497 280.724 348.259L281.732 347.266L282.519 346.49L283.464 345.559C283.777 345.25 284.304 345.229 284.641 345.512Z" fill="#065235"/>
<path d="M339.641 279.512L340.042 279.848C340.173 279.958 340.181 280.145 340.059 280.265L339.838 280.482L338.894 281.413L338.106 282.189L337.099 283.182L336.831 283.446C336.537 283.735 336.024 283.694 335.796 283.362L335.633 283.125C335.445 282.852 335.483 282.497 335.724 282.259L336.732 281.266L337.519 280.49L338.464 279.559C338.777 279.25 339.304 279.229 339.641 279.512Z" fill="#065235"/>
<path d="M339.641 279.512L340.042 279.848C340.173 279.958 340.181 280.145 340.059 280.265L339.838 280.482L338.894 281.413L338.106 282.189L337.099 283.182L336.831 283.446C336.537 283.735 336.024 283.694 335.796 283.362L335.633 283.125C335.445 282.852 335.483 282.497 335.724 282.259L336.732 281.266L337.519 280.49L338.464 279.559C338.777 279.25 339.304 279.229 339.641 279.512Z" fill="#065235"/>
<path d="M339.641 279.512L340.042 279.848C340.173 279.958 340.181 280.145 340.059 280.265L339.838 280.482L338.894 281.413L338.106 282.189L337.099 283.182L336.831 283.446C336.537 283.735 336.024 283.694 335.796 283.362L335.633 283.125C335.445 282.852 335.483 282.497 335.724 282.259L336.732 281.266L337.519 280.49L338.464 279.559C338.777 279.25 339.304 279.229 339.641 279.512Z" fill="#065235"/>
<path d="M340.641 306.512L341.042 306.848C341.173 306.958 341.181 307.145 341.059 307.265L340.838 307.482L339.894 308.413L339.106 309.189L338.099 310.182L337.831 310.446C337.537 310.735 337.024 310.694 336.796 310.362L336.633 310.125C336.445 309.852 336.483 309.497 336.724 309.259L337.732 308.266L338.519 307.49L339.464 306.559C339.777 306.25 340.304 306.229 340.641 306.512Z" fill="#065235"/>
<path d="M340.641 306.512L341.042 306.848C341.173 306.958 341.181 307.145 341.059 307.265L340.838 307.482L339.894 308.413L339.106 309.189L338.099 310.182L337.831 310.446C337.537 310.735 337.024 310.694 336.796 310.362L336.633 310.125C336.445 309.852 336.483 309.497 336.724 309.259L337.732 308.266L338.519 307.49L339.464 306.559C339.777 306.25 340.304 306.229 340.641 306.512Z" fill="#065235"/>
<path d="M340.641 306.512L341.042 306.848C341.173 306.958 341.181 307.145 341.059 307.265L340.838 307.482L339.894 308.413L339.106 309.189L338.099 310.182L337.831 310.446C337.537 310.735 337.024 310.694 336.796 310.362L336.633 310.125C336.445 309.852 336.483 309.497 336.724 309.259L337.732 308.266L338.519 307.49L339.464 306.559C339.777 306.25 340.304 306.229 340.641 306.512Z" fill="#065235"/>
<path d="M333.641 317.512L334.042 317.848C334.173 317.958 334.181 318.145 334.059 318.265L333.838 318.482L332.894 319.413L332.106 320.189L331.099 321.182L330.831 321.446C330.537 321.735 330.024 321.694 329.796 321.362L329.633 321.125C329.445 320.852 329.483 320.497 329.724 320.259L330.732 319.266L331.519 318.49L332.464 317.559C332.777 317.25 333.304 317.229 333.641 317.512Z" fill="#065235"/>
<path d="M333.641 317.512L334.042 317.848C334.173 317.958 334.181 318.145 334.059 318.265L333.838 318.482L332.894 319.413L332.106 320.189L331.099 321.182L330.831 321.446C330.537 321.735 330.024 321.694 329.796 321.362L329.633 321.125C329.445 320.852 329.483 320.497 329.724 320.259L330.732 319.266L331.519 318.49L332.464 317.559C332.777 317.25 333.304 317.229 333.641 317.512Z" fill="#065235"/>
<path d="M333.641 317.512L334.042 317.848C334.173 317.958 334.181 318.145 334.059 318.265L333.838 318.482L332.894 319.413L332.106 320.189L331.099 321.182L330.831 321.446C330.537 321.735 330.024 321.694 329.796 321.362L329.633 321.125C329.445 320.852 329.483 320.497 329.724 320.259L330.732 319.266L331.519 318.49L332.464 317.559C332.777 317.25 333.304 317.229 333.641 317.512Z" fill="#065235"/>
<ellipse cx="353.5" cy="149" rx="4.5" ry="4" fill="#FF5C58"/>
<ellipse cx="367.5" cy="149" rx="4.5" ry="4" fill="#04E682"/>
<ellipse cx="339.5" cy="149" rx="4.5" ry="4" fill="#F3CE00"/>
<rect width="210" height="1" transform="matrix(1 0 0 -1 326 155)" fill="#521616"/>
<rect x="536" y="105" width="108" height="93" rx="10" fill="#D90505"/>
<path d="M623 155.5L623.851 156.346L624.805 157.876L625.5 157.5L633.5 152.5L633.5 149L623.851 144.5L623.5 146L623 147.5L630.015 151.031L626.955 152.939L623 155.5Z" fill="#FFFCF9"/>
<path d="M555.417 147.321L554.537 146.506L553.528 145.012L552.847 145.412L545.032 150.697L545.157 154.195L554.962 158.345L555.259 156.833L555.705 155.316L548.568 152.04L551.556 150.023L555.417 147.321Z" fill="#FFFCF9"/>
<path d="M562 162.5H559V141H562V142V147.5L564.5 146.5H568L570.5 147.5L571 150V156V162.5H570.5H568V160V156V152.5V150.5L567 149.5H564.5L562 150.5V152.5V157.5V162.5Z" fill="#FCFDF9"/>
<path d="M584.5 162.5H580H577.5V161.5V149H574.5V147H577.5V142H580V147H583.5V149H580V154V160H583H584.5V162.5Z" fill="#FCFDF9"/>
<path d="M591 162.5H589H587.5V146H591V148L592.5 147L594 146.5L597.5 147L599 149L600.5 147.5L603 146.5L606 147L607 148L607.772 150.5V162.5H605V161.5V150.5L604 149.5H603L601.5 150L600.5 151V152.5V162.5H598V157V153L597.5 150.5L596 149.5L594 149L592 150L591 151V154.5V157V162.5Z" fill="#FCFDF9"/>
<path d="M620 162.5H614.5H613V141H617V150.5V159.5H620V162.5Z" fill="#FCFDF9"/>
<ellipse cx="559.5" cy="111" rx="4.5" ry="4" fill="#FF5C58"/>
<ellipse cx="573.5" cy="111" rx="4.5" ry="4" fill="#04E682"/>
<ellipse cx="545.5" cy="111" rx="4.5" ry="4" fill="#F3CE00"/>
<rect width="108" height="1" transform="matrix(1 0 0 -1 536 118)" fill="#521616"/>
<rect x="153" y="86" width="173" height="136" rx="10" fill="#2F1535"/>
<ellipse cx="191" cy="94" rx="7" ry="6" fill="#FF5C58"/>
<ellipse cx="213" cy="94" rx="7" ry="6" fill="#04E682"/>
<ellipse cx="168" cy="94" rx="7" ry="6" fill="#F3CE00"/>
<rect width="173" height="1" transform="matrix(1 0 0 -1 153 105)" fill="#521616"/>
<path d="M671.152 244H649L667.242 286H692L671.152 244Z" fill="#E7E4E4"/>
<path d="M670 388V284H691V388H670Z" fill="#D2DE26"/>
<path d="M670 284.625L648 240V319.625L670 387V284.625Z" fill="#BFCA26"/>
<ellipse cx="681.5" cy="359" rx="6.5" ry="6" fill="#FEFFFF"/>
<path d="M687 298H674V343H687V298Z" fill="#FFFDFA"/>
<path d="M646.152 244H624L642.242 286H667L646.152 244Z" fill="#E7E4E4"/>
<path d="M643 388V284H666V388H643Z" fill="#170132" fill-opacity="0.83"/>
<path d="M643 284.625L623 240V319.625L643 387V284.625Z" fill="#361542" fill-opacity="0.71"/>
<ellipse cx="655.5" cy="359" rx="7.5" ry="6" fill="#FEFFFF"/>
<path d="M662 298H647V343H662V298Z" fill="#FFFDFA"/>
<path d="M610.5 371.5H609.5V370V367V365L608.5 363.5L608 360.5V359V357.5L608.5 354C608.833 354.333 609.5 355.1 609.5 355.5V357V358.5V360.5C609.5 360.9 610.167 362 610.5 362.5V363.5L611 366V369L610.5 371.5Z" fill="#BEB5B5"/>
<path d="M616.223 354.064L617.223 354.073L617.209 355.573L617.182 358.573L617.164 360.573L618.15 362.082L618.622 365.086L618.609 366.586L618.595 368.086L618.063 371.581C617.733 371.245 617.073 370.472 617.077 370.072L617.091 368.572L617.104 367.072L617.123 365.072C617.126 364.672 616.47 363.566 616.141 363.063L616.15 362.063L615.673 359.559L615.7 356.559L616.223 354.064Z" fill="#BEB5B5"/>
<path d="M625.223 353.064L626.223 353.073L626.209 354.573L626.182 357.573L626.164 359.573L627.15 361.082L627.622 364.086L627.609 365.586L627.595 367.086L627.063 370.581C626.733 370.245 626.073 369.472 626.077 369.072L626.091 367.572L626.104 366.072L626.123 364.072C626.126 363.672 625.47 362.566 625.141 362.063L625.15 361.063L624.673 358.559L624.7 355.559L625.223 353.064Z" fill="#BEB5B5"/>
<ellipse cx="240.5" cy="161" rx="58.5" ry="52" fill="#974646"/>
<path d="M258 133H251.5L240.75 160.5L230 188H238L258 133Z" fill="#FCFFFF"/>
<path d="M230.835 150.145L228.956 147.512L227.099 142.996L225.106 143.718L201.878 153.849L200.375 163.275L223.87 179.413L225.438 175.519L227.4 171.688L210.431 159.259L219.312 155.395L230.835 150.145Z" fill="#FFFCF9"/>
<path d="M253.499 174.021L255.51 176.5L257.596 180.81L259.548 180.024L282.212 169.19L283.227 159.967L258.945 145.283L257.58 149.133L255.819 152.939L273.396 164.297L264.731 168.43L253.499 174.021Z" fill="#FFFCF9"/>
<ellipse cx="621.5" cy="417" rx="33.5" ry="12" fill="#D7D7D7"/>
<path d="M642.557 402.839L640.628 404.553C639.63 405.44 638.217 405.687 636.977 405.191C635.289 404.516 634.392 402.668 634.905 400.924L638.183 389.779C638.667 388.131 640.179 387 641.897 387C642.923 387 643.908 387.408 644.634 388.134L645 388.5C645.96 389.46 646.5 390.763 646.5 392.121V393.162C646.5 393.719 646.439 394.274 646.318 394.818L645.92 396.611C645.642 397.863 645.176 399.066 644.54 400.18L644.126 400.904C643.712 401.63 643.181 402.283 642.557 402.839Z" fill="#EBEBEB"/>
<path d="M615 418.5L608.5 416L607.5 413L606 409L604.5 404.5L602 397.5L601 387L600.5 383V379.5L602 377.5L606.5 375L612.5 373.5L623.5 373L630 374L635 376L638 378.5L639.5 382.5V388.5L636 402.5L634 408L632 416L630 417.5L625 418.5H615Z" fill="#EEEEEE"/>
<path d="M637 396.5L638 393.5L639.5 390L641 389L643 390L644 392.5L643 396.5L641 401L637.5 403.5C636.604 403.201 636 402.363 636 401.419V400.5L637 396.5Z" fill="#C4C4C4" fill-opacity="0.66"/>
<ellipse cx="619.5" cy="382.5" rx="17.5" ry="6.5" fill="#A0735C"/>
<path d="M305.339 493.368L298.688 495.876C295.957 496.907 293.602 498.741 291.934 501.137C287.382 507.678 288.991 516.671 295.529 521.228L298.273 523.141C303.963 527.107 311.681 526.41 316.568 521.489L320.795 517.233C323.503 514.508 325.022 510.822 325.022 506.98C325.022 496.811 314.854 489.779 305.339 493.368Z" fill="#361542" fill-opacity="0.71"/>
<path d="M227.872 289.959L219.351 273.67C216.846 273.67 210.521 270.967 205.261 260.153C200.001 249.339 212.462 250.307 219.351 252.143L229.539 255.138C239.648 258.111 246.59 267.389 246.59 277.927V285.359C246.59 288.689 244.92 291.797 242.142 293.635C237.236 296.881 230.599 295.172 227.872 289.959Z" fill="#361542" fill-opacity="0.71"/>
<path d="M708.765 281.284L715.825 280.462C718.725 280.124 721.454 278.915 723.653 276.995C729.655 271.752 730.273 262.637 725.034 256.632L722.835 254.11C718.276 248.884 710.62 247.689 704.685 251.279L699.553 254.384C696.266 256.372 693.898 259.579 692.967 263.306C690.503 273.173 698.663 282.46 708.765 281.284Z" fill="#361542" fill-opacity="0.71"/>
<path d="M734.627 497.402L738.947 515.271C741.377 515.878 746.858 520.033 749.34 531.8C751.823 543.566 739.968 539.607 733.73 536.157L724.572 530.781C715.484 525.447 710.997 514.763 713.551 504.54L715.352 497.329C716.159 494.098 718.533 491.487 721.673 490.377C727.22 488.417 733.244 491.684 734.627 497.402Z" fill="#361542" fill-opacity="0.71"/>
<path d="M452.496 482H379.605C368.513 482 357.749 485.702 349 492.52L358.207 495.526C370.708 499.608 380.089 509.761 388.498 519.872C395.498 528.288 416.497 519.872 452.496 519.872H479.495C497.494 519.872 514.493 515.138 538.492 519.872C562.491 524.606 570.991 525.658 605.989 534.074C639.77 542.197 611.436 493.917 576.692 494.128C558.475 494.239 543.065 493.867 538.492 492.52C525.993 488.838 459.495 482 452.496 482Z" fill="#170132" fill-opacity="0.83"/>
</svg>
